<?xml version="1.0" encoding="UTF-8" standalone="no"?>
<!DOCTYPE svg PUBLIC "-//W3C//DTD SVG 1.1//EN"
 "http://www.w3.org/Graphics/SVG/1.1/DTD/svg11.dtd">
<!-- Generated by graphviz version 2.50.0 (20211204.2007)
 -->
<!-- Title: dependency&#45;cruiser output Pages: 1 -->
<svg width="480pt" height="612pt"
 viewBox="0.00 0.00 480.00 612.00" xmlns="http://www.w3.org/2000/svg" xmlns:xlink="http://www.w3.org/1999/xlink">
<g id="graph0" class="graph" transform="scale(1 1) rotate(0) translate(4 608)">
<title>dependency&#45;cruiser output</title>
<polygon fill="white" stroke="transparent" points="-4,4 -4,-608 476,-608 476,4 -4,4"/>
<g id="clust1" class="cluster">
<title>cluster_src</title>
<path fill="#ffffff" stroke="black" stroke-width="2" d="M20,-26C20,-26 452,-26 452,-26 458,-26 464,-32 464,-38 464,-38 464,-584 464,-584 464,-590 458,-596 452,-596 452,-596 20,-596 20,-596 14,-596 8,-590 8,-584 8,-584 8,-38 8,-38 8,-32 14,-26 20,-26"/>
<text text-anchor="middle" x="236" y="-584.8" font-family="Helvetica,sans-Serif" font-weight="bold" font-size="9.00">src</text>
</g>
<g id="clust2" class="cluster">
<title>cluster_src/assets</title>
<path fill="#ffffff" stroke="black" stroke-width="2" d="M338,-34C338,-34 444,-34 444,-34 450,-34 456,-40 456,-46 456,-46 456,-168 456,-168 456,-174 450,-180 444,-180 444,-180 338,-180 338,-180 332,-180 326,-174 326,-168 326,-168 326,-46 326,-46 326,-40 332,-34 338,-34"/>
<text text-anchor="middle" x="391" y="-168.8" font-family="Helvetica,sans-Serif" font-weight="bold" font-size="9.00">assets</text>
</g>
<g id="clust3" class="cluster">
<title>cluster_src/assets/shared</title>
<path fill="#ffffff" stroke="black" stroke-width="2" d="M346,-42C346,-42 436,-42 436,-42 442,-42 448,-48 448,-54 448,-54 448,-142 448,-142 448,-148 442,-154 436,-154 436,-154 346,-154 346,-154 340,-154 334,-148 334,-142 334,-142 334,-54 334,-54 334,-48 340,-42 346,-42"/>
<text text-anchor="middle" x="391" y="-142.8" font-family="Helvetica,sans-Serif" font-weight="bold" font-size="9.00">shared</text>
</g>
<g id="clust5" class="cluster">
<title>cluster_src/customHooks</title>
<path fill="#ffffff" stroke="black" stroke-width="2" d="M223,-104C223,-104 302,-104 302,-104 308,-104 314,-110 314,-116 314,-116 314,-144 314,-144 314,-150 308,-156 302,-156 302,-156 223,-156 223,-156 217,-156 211,-150 211,-144 211,-144 211,-116 211,-116 211,-110 217,-104 223,-104"/>
<text text-anchor="middle" x="262.5" y="-144.8" font-family="Helvetica,sans-Serif" font-weight="bold" font-size="9.00">customHooks</text>
</g>
<g id="clust6" class="cluster">
<title>cluster_src/routes</title>
<path fill="#ffffff" stroke="black" stroke-width="2" d="M127,-364C127,-364 306,-364 306,-364 312,-364 318,-370 318,-376 318,-376 318,-558 318,-558 318,-564 312,-570 306,-570 306,-570 127,-570 127,-570 121,-570 115,-564 115,-558 115,-558 115,-376 115,-376 115,-370 121,-364 127,-364"/>
<text text-anchor="middle" x="216.5" y="-558.8" font-family="Helvetica,sans-Serif" font-weight="bold" font-size="9.00">routes</text>
</g>
<g id="clust7" class="cluster">
<title>cluster_src/routes/crew</title>
<path fill="#ffffff" stroke="black" stroke-width="2" d="M144,-492C144,-492 285.5,-492 285.5,-492 291.5,-492 297.5,-498 297.5,-504 297.5,-504 297.5,-532 297.5,-532 297.5,-538 291.5,-544 285.5,-544 285.5,-544 144,-544 144,-544 138,-544 132,-538 132,-532 132,-532 132,-504 132,-504 132,-498 138,-492 144,-492"/>
<text text-anchor="middle" x="214.75" y="-532.8" font-family="Helvetica,sans-Serif" font-weight="bold" font-size="9.00">crew</text>
</g>
<g id="clust9" class="cluster">
<title>cluster_src/routes/home</title>
<path fill="#ffffff" stroke="black" stroke-width="2" d="M144,-432C144,-432 287,-432 287,-432 293,-432 299,-438 299,-444 299,-444 299,-472 299,-472 299,-478 293,-484 287,-484 287,-484 144,-484 144,-484 138,-484 132,-478 132,-472 132,-472 132,-444 132,-444 132,-438 138,-432 144,-432"/>
<text text-anchor="middle" x="215.5" y="-472.8" font-family="Helvetica,sans-Serif" font-weight="bold" font-size="9.00">home</text>
</g>
<g id="clust8" class="cluster">
<title>cluster_src/routes/destination</title>
<path fill="#ffffff" stroke="black" stroke-width="2" d="M135,-372C135,-372 298,-372 298,-372 304,-372 310,-378 310,-384 310,-384 310,-412 310,-412 310,-418 304,-424 298,-424 298,-424 135,-424 135,-424 129,-424 123,-418 123,-412 123,-412 123,-384 123,-384 123,-378 129,-372 135,-372"/>
<text text-anchor="middle" x="216.5" y="-412.8" font-family="Helvetica,sans-Serif" font-weight="bold" font-size="9.00">destination</text>
</g>
<g id="clust4" class="cluster">
<title>cluster_src/commonComponents</title>
<path fill="#ffffff" stroke="black" stroke-width="2" d="M226,-188C226,-188 431,-188 431,-188 437,-188 443,-194 443,-200 443,-200 443,-318 443,-318 443,-324 437,-330 431,-330 431,-330 226,-330 226,-330 220,-330 214,-324 214,-318 214,-318 214,-200 214,-200 214,-194 220,-188 226,-188"/>
<text text-anchor="middle" x="328.5" y="-318.8" font-family="Helvetica,sans-Serif" font-weight="bold" font-size="9.00">commonComponents</text>
</g>
<!-- ./App -->
<g id="node1" class="node">
<title>./App</title>
<path fill="#ffffcc" stroke="red" d="M188,-18C188,-18 146,-18 146,-18 143,-18 140,-15 140,-12 140,-12 140,-6 140,-6 140,-3 143,0 146,0 146,0 188,0 188,0 191,0 194,-3 194,-6 194,-6 194,-12 194,-12 194,-15 191,-18 188,-18"/>
<text text-anchor="middle" x="167" y="-6.8" font-family="Helvetica,sans-Serif" font-size="9.00" fill="red">App</text>
</g>
<!-- src/App.test.js -->
<g id="node2" class="node">
<title>src/App.test.js</title>
<g id="a_node2"><a xlink:href="src/App.test.js" xlink:title="App.test.js">
<path fill="#ffffcc" stroke="black" d="M85,-112C85,-112 38,-112 38,-112 35,-112 32,-109 32,-106 32,-106 32,-100 32,-100 32,-97 35,-94 38,-94 38,-94 85,-94 85,-94 88,-94 91,-97 91,-100 91,-100 91,-106 91,-106 91,-109 88,-112 85,-112"/>
<text text-anchor="middle" x="61.5" y="-100.8" font-family="Helvetica,sans-Serif" font-size="9.00">App.test.js</text>
</a>
</g>
</g>
<!-- src/App.test.js&#45;&gt;./App -->
<g id="edge1" class="edge">
<title>src/App.test.js&#45;&gt;./App</title>
<path fill="none" stroke="#000000" stroke-width="2" stroke-opacity="0.200000" d="M91.3,-98.48C97.28,-96.25 102.98,-92.93 107,-88 125.39,-65.44 95.97,-45.02 115,-23 119.83,-17.41 126.66,-13.95 133.76,-11.84"/>
<polygon fill="#000000" fill-opacity="0.200000" stroke="#000000" stroke-width="2" stroke-opacity="0.200000" points="134.43,-13.83 139.75,-10.36 133.42,-9.76 134.43,-13.83"/>
</g>
<!-- src/Nav.css -->
<g id="node3" class="node">
<title>src/Nav.css</title>
<g id="a_node3"><a xlink:href="src/Nav.css" xlink:title="Nav.css">
<path fill="#ffffcc" stroke="black" d="M283.5,-96C283.5,-96 241.5,-96 241.5,-96 238.5,-96 235.5,-93 235.5,-90 235.5,-90 235.5,-84 235.5,-84 235.5,-81 238.5,-78 241.5,-78 241.5,-78 283.5,-78 283.5,-78 286.5,-78 289.5,-81 289.5,-84 289.5,-84 289.5,-90 289.5,-90 289.5,-93 286.5,-96 283.5,-96"/>
<text text-anchor="middle" x="262.5" y="-84.8" font-family="Helvetica,sans-Serif" font-size="9.00">Nav.css</text>
</a>
</g>
</g>
<!-- src/Nav.js -->
<g id="node4" class="node">
<title>src/Nav.js</title>
<g id="a_node4"><a xlink:href="src/Nav.js" xlink:title="Nav.js">
<path fill="#ffffcc" stroke="black" d="M188,-229C188,-229 146,-229 146,-229 143,-229 140,-226 140,-223 140,-223 140,-217 140,-217 140,-214 143,-211 146,-211 146,-211 188,-211 188,-211 191,-211 194,-214 194,-217 194,-217 194,-223 194,-223 194,-226 191,-229 188,-229"/>
<text text-anchor="middle" x="167" y="-217.8" font-family="Helvetica,sans-Serif" font-size="9.00">Nav.js</text>
</a>
</g>
</g>
<!-- src/Nav.js&#45;&gt;src/Nav.css -->
<g id="edge8" class="edge">
<title>src/Nav.js&#45;&gt;src/Nav.css</title>
<path fill="none" stroke="#000000" stroke-width="2" stroke-opacity="0.200000" d="M194.07,-212.76C197.54,-210.76 200.69,-208.23 203,-205 216.49,-186.15 196.27,-118.9 211,-101 215.65,-95.35 222.37,-91.86 229.39,-89.75"/>
<polygon fill="#000000" fill-opacity="0.200000" stroke="#000000" stroke-width="2" stroke-opacity="0.200000" points="230.01,-91.76 235.33,-88.27 229,-87.68 230.01,-91.76"/>
</g>
<!-- src/assets/shared/icon&#45;hamburger.svg -->
<g id="node5" class="node">
<title>src/assets/shared/icon&#45;hamburger.svg</title>
<g id="a_node5"><a xlink:href="src/assets/shared/icon-hamburger.svg" xlink:title="icon&#45;hamburger.svg">
<path fill="#ffffcc" stroke="black" d="M434,-68C434,-68 348,-68 348,-68 345,-68 342,-65 342,-62 342,-62 342,-56 342,-56 342,-53 345,-50 348,-50 348,-50 434,-50 434,-50 437,-50 440,-53 440,-56 440,-56 440,-62 440,-62 440,-65 437,-68 434,-68"/>
<text text-anchor="middle" x="391" y="-56.8" font-family="Helvetica,sans-Serif" font-size="9.00">icon&#45;hamburger.svg</text>
</a>
</g>
</g>
<!-- src/Nav.js&#45;&gt;src/assets/shared/icon&#45;hamburger.svg -->
<g id="edge2" class="edge">
<title>src/Nav.js&#45;&gt;src/assets/shared/icon&#45;hamburger.svg</title>
<path fill="none" stroke="#000000" stroke-width="2" stroke-opacity="0.200000" d="M194.02,-212.24C197.4,-210.32 200.54,-207.94 203,-205 213.22,-192.75 199.05,-180.57 211,-170 228.9,-154.16 301.17,-175.97 318,-159 331.36,-145.53 313.53,-88.3 326,-74 328.94,-70.63 332.48,-67.94 336.37,-65.8"/>
<polygon fill="#000000" fill-opacity="0.200000" stroke="#000000" stroke-width="2" stroke-opacity="0.200000" points="337.32,-67.67 341.86,-63.21 335.53,-63.87 337.32,-67.67"/>
</g>
<!-- src/assets/shared/logo.svg -->
<g id="node6" class="node">
<title>src/assets/shared/logo.svg</title>
<g id="a_node6"><a xlink:href="src/assets/shared/logo.svg" xlink:title="logo.svg">
<path fill="#ffffcc" stroke="black" d="M412,-98C412,-98 370,-98 370,-98 367,-98 364,-95 364,-92 364,-92 364,-86 364,-86 364,-83 367,-80 370,-80 370,-80 412,-80 412,-80 415,-80 418,-83 418,-86 418,-86 418,-92 418,-92 418,-95 415,-98 412,-98"/>
<text text-anchor="middle" x="391" y="-86.8" font-family="Helvetica,sans-Serif" font-size="9.00">logo.svg</text>
</a>
</g>
</g>
<!-- src/Nav.js&#45;&gt;src/assets/shared/logo.svg -->
<g id="edge3" class="edge">
<title>src/Nav.js&#45;&gt;src/assets/shared/logo.svg</title>
<path fill="none" stroke="#000000" stroke-width="2" stroke-opacity="0.200000" d="M194.33,-211.49C197.51,-209.7 200.51,-207.55 203,-205 209.69,-198.15 203.49,-190.94 211,-185 248.71,-155.16 284.44,-203.44 318,-169 338.31,-148.15 306.56,-125.66 326,-104 333.98,-95.1 346.15,-90.98 357.74,-89.21"/>
<polygon fill="#000000" fill-opacity="0.200000" stroke="#000000" stroke-width="2" stroke-opacity="0.200000" points="358.01,-91.29 363.72,-88.48 357.51,-87.12 358.01,-91.29"/>
</g>
<!-- src/commonComponents/NavItem.js -->
<g id="node7" class="node">
<title>src/commonComponents/NavItem.js</title>
<g id="a_node7"><a xlink:href="src/commonComponents/NavItem.js" xlink:title="NavItem.js">
<path fill="#ffffcc" stroke="black" d="M286,-214C286,-214 239,-214 239,-214 236,-214 233,-211 233,-208 233,-208 233,-202 233,-202 233,-199 236,-196 239,-196 239,-196 286,-196 286,-196 289,-196 292,-199 292,-202 292,-202 292,-208 292,-208 292,-211 289,-214 286,-214"/>
<text text-anchor="middle" x="262.5" y="-202.8" font-family="Helvetica,sans-Serif" font-size="9.00">NavItem.js</text>
</a>
</g>
</g>
<!-- src/Nav.js&#45;&gt;src/commonComponents/NavItem.js -->
<g id="edge4" class="edge">
<title>src/Nav.js&#45;&gt;src/commonComponents/NavItem.js</title>
<path fill="none" stroke="#000000" stroke-width="2" stroke-opacity="0.200000" d="M194.04,-215.82C204.26,-214.18 216.12,-212.28 227.03,-210.53"/>
<polygon fill="#000000" fill-opacity="0.200000" stroke="#000000" stroke-width="2" stroke-opacity="0.200000" points="227.38,-212.6 232.97,-209.58 226.71,-208.45 227.38,-212.6"/>
</g>
<!-- src/commonComponents/NavList.js -->
<g id="node8" class="node">
<title>src/commonComponents/NavList.js</title>
<g id="a_node8"><a xlink:href="src/commonComponents/NavList.js" xlink:title="NavList.js">
<path fill="#ffffcc" stroke="black" d="M284.5,-274C284.5,-274 240.5,-274 240.5,-274 237.5,-274 234.5,-271 234.5,-268 234.5,-268 234.5,-262 234.5,-262 234.5,-259 237.5,-256 240.5,-256 240.5,-256 284.5,-256 284.5,-256 287.5,-256 290.5,-259 290.5,-262 290.5,-262 290.5,-268 290.5,-268 290.5,-271 287.5,-274 284.5,-274"/>
<text text-anchor="middle" x="262.5" y="-262.8" font-family="Helvetica,sans-Serif" font-size="9.00">NavList.js</text>
</a>
</g>
</g>
<!-- src/Nav.js&#45;&gt;src/commonComponents/NavList.js -->
<g id="edge5" class="edge">
<title>src/Nav.js&#45;&gt;src/commonComponents/NavList.js</title>
<path fill="none" stroke="#000000" stroke-width="2" stroke-opacity="0.200000" d="M179.06,-229.21C187.4,-235.77 199.36,-244.39 211,-250 216.5,-252.65 222.57,-254.94 228.53,-256.87"/>
<polygon fill="#000000" fill-opacity="0.200000" stroke="#000000" stroke-width="2" stroke-opacity="0.200000" points="228.08,-258.93 234.43,-258.69 229.31,-254.92 228.08,-258.93"/>
</g>
<!-- src/commonComponents/Overlay.js -->
<g id="node9" class="node">
<title>src/commonComponents/Overlay.js</title>
<g id="a_node9"><a xlink:href="src/commonComponents/Overlay.js" xlink:title="Overlay.js">
<path fill="#ffffcc" stroke="black" d="M285,-244C285,-244 240,-244 240,-244 237,-244 234,-241 234,-238 234,-238 234,-232 234,-232 234,-229 237,-226 240,-226 240,-226 285,-226 285,-226 288,-226 291,-229 291,-232 291,-232 291,-238 291,-238 291,-241 288,-244 285,-244"/>
<text text-anchor="middle" x="262.5" y="-232.8" font-family="Helvetica,sans-Serif" font-size="9.00">Overlay.js</text>
</a>
</g>
</g>
<!-- src/Nav.js&#45;&gt;src/commonComponents/Overlay.js -->
<g id="edge6" class="edge">
<title>src/Nav.js&#45;&gt;src/commonComponents/Overlay.js</title>
<path fill="none" stroke="#000000" stroke-width="2" stroke-opacity="0.200000" d="M194.04,-224.18C204.53,-225.86 216.76,-227.82 227.9,-229.61"/>
<polygon fill="#000000" fill-opacity="0.200000" stroke="#000000" stroke-width="2" stroke-opacity="0.200000" points="227.71,-231.71 233.96,-230.58 228.37,-227.56 227.71,-231.71"/>
</g>
<!-- src/customHooks/getDimensions.js -->
<g id="node10" class="node">
<title>src/customHooks/getDimensions.js</title>
<g id="a_node10"><a xlink:href="src/customHooks/getDimensions.js" xlink:title="getDimensions.js">
<path fill="#ffffcc" stroke="black" d="M300,-130C300,-130 225,-130 225,-130 222,-130 219,-127 219,-124 219,-124 219,-118 219,-118 219,-115 222,-112 225,-112 225,-112 300,-112 300,-112 303,-112 306,-115 306,-118 306,-118 306,-124 306,-124 306,-127 303,-130 300,-130"/>
<text text-anchor="middle" x="262.5" y="-118.8" font-family="Helvetica,sans-Serif" font-size="9.00">getDimensions.js</text>
</a>
</g>
</g>
<!-- src/Nav.js&#45;&gt;src/customHooks/getDimensions.js -->
<g id="edge7" class="edge">
<title>src/Nav.js&#45;&gt;src/customHooks/getDimensions.js</title>
<path fill="none" stroke="#000000" stroke-width="2" stroke-opacity="0.200000" d="M194.32,-212.48C197.67,-210.53 200.71,-208.08 203,-205 221.94,-179.51 190.17,-157.97 211,-134 211.85,-133.03 212.75,-132.12 213.72,-131.28"/>
<polygon fill="#000000" fill-opacity="0.200000" stroke="#000000" stroke-width="2" stroke-opacity="0.200000" points="215.25,-132.77 218.92,-127.58 212.81,-129.35 215.25,-132.77"/>
</g>
<!-- src/space&#45;data.js -->
<g id="node11" class="node">
<title>src/space&#45;data.js</title>
<g id="a_node11"><a xlink:href="src/space-data.js" xlink:title="space&#45;data.js">
<path fill="#ffffcc" stroke="black" d="M292,-356C292,-356 233,-356 233,-356 230,-356 227,-353 227,-350 227,-350 227,-344 227,-344 227,-341 230,-338 233,-338 233,-338 292,-338 292,-338 295,-338 298,-341 298,-344 298,-344 298,-350 298,-350 298,-353 295,-356 292,-356"/>
<text text-anchor="middle" x="262.5" y="-344.8" font-family="Helvetica,sans-Serif" font-size="9.00">space&#45;data.js</text>
</a>
</g>
</g>
<!-- src/Nav.js&#45;&gt;src/space&#45;data.js -->
<g id="edge9" class="edge">
<title>src/Nav.js&#45;&gt;src/space&#45;data.js</title>
<path fill="none" stroke="#000000" stroke-width="2" stroke-opacity="0.200000" d="M168.75,-229.15C171,-250.6 179.65,-304.45 211,-333 214.03,-335.76 217.55,-337.98 221.3,-339.77"/>
<polygon fill="#000000" fill-opacity="0.200000" stroke="#000000" stroke-width="2" stroke-opacity="0.200000" points="220.59,-341.74 226.94,-342.09 222.19,-337.86 220.59,-341.74"/>
</g>
<!-- src/assets/shared/icon&#45;close.svg -->
<g id="node12" class="node">
<title>src/assets/shared/icon&#45;close.svg</title>
<g id="a_node12"><a xlink:href="src/assets/shared/icon-close.svg" xlink:title="icon&#45;close.svg">
<path fill="#ffffcc" stroke="black" d="M422.5,-128C422.5,-128 359.5,-128 359.5,-128 356.5,-128 353.5,-125 353.5,-122 353.5,-122 353.5,-116 353.5,-116 353.5,-113 356.5,-110 359.5,-110 359.5,-110 422.5,-110 422.5,-110 425.5,-110 428.5,-113 428.5,-116 428.5,-116 428.5,-122 428.5,-122 428.5,-125 425.5,-128 422.5,-128"/>
<text text-anchor="middle" x="391" y="-116.8" font-family="Helvetica,sans-Serif" font-size="9.00">icon&#45;close.svg</text>
</a>
</g>
</g>
<!-- src/commonComponents/Overlay.js&#45;&gt;src/assets/shared/icon&#45;close.svg -->
<g id="edge11" class="edge">
<title>src/commonComponents/Overlay.js&#45;&gt;src/assets/shared/icon&#45;close.svg</title>
<path fill="none" stroke="#000000" stroke-width="2" stroke-opacity="0.200000" d="M291.14,-233.16C300.82,-231.16 311.01,-227.3 318,-220 329.03,-208.47 318.39,-199.02 326,-185 337.7,-163.45 358.41,-144 373.1,-131.88"/>
<polygon fill="#000000" fill-opacity="0.200000" stroke="#000000" stroke-width="2" stroke-opacity="0.200000" points="374.48,-133.47 377.83,-128.06 371.84,-130.2 374.48,-133.47"/>
</g>
<!-- src/commonComponents/Overlay.css -->
<g id="node15" class="node">
<title>src/commonComponents/Overlay.css</title>
<g id="a_node15"><a xlink:href="src/commonComponents/Overlay.css" xlink:title="Overlay.css">
<path fill="#ffffcc" stroke="black" d="M417,-244C417,-244 365,-244 365,-244 362,-244 359,-241 359,-238 359,-238 359,-232 359,-232 359,-229 362,-226 365,-226 365,-226 417,-226 417,-226 420,-226 423,-229 423,-232 423,-232 423,-238 423,-238 423,-241 420,-244 417,-244"/>
<text text-anchor="middle" x="391" y="-232.8" font-family="Helvetica,sans-Serif" font-size="9.00">Overlay.css</text>
</a>
</g>
</g>
<!-- src/commonComponents/Overlay.js&#45;&gt;src/commonComponents/Overlay.css -->
<g id="edge12" class="edge">
<title>src/commonComponents/Overlay.js&#45;&gt;src/commonComponents/Overlay.css</title>
<path fill="none" stroke="#000000" stroke-width="2" stroke-opacity="0.200000" d="M291.26,-235C309.24,-235 332.88,-235 352.52,-235"/>
<polygon fill="#000000" fill-opacity="0.200000" stroke="#000000" stroke-width="2" stroke-opacity="0.200000" points="352.75,-237.1 358.75,-235 352.75,-232.9 352.75,-237.1"/>
</g>
<!-- src/commonComponents/MainWrapper.css -->
<g id="node13" class="node">
<title>src/commonComponents/MainWrapper.css</title>
<g id="a_node13"><a xlink:href="src/commonComponents/MainWrapper.css" xlink:title="MainWrapper.css">
<path fill="#ffffcc" stroke="black" d="M429,-304C429,-304 353,-304 353,-304 350,-304 347,-301 347,-298 347,-298 347,-292 347,-292 347,-289 350,-286 353,-286 353,-286 429,-286 429,-286 432,-286 435,-289 435,-292 435,-292 435,-298 435,-298 435,-301 432,-304 429,-304"/>
<text text-anchor="middle" x="391" y="-292.8" font-family="Helvetica,sans-Serif" font-size="9.00">MainWrapper.css</text>
</a>
</g>
</g>
<!-- src/commonComponents/MainWrapper.js -->
<g id="node14" class="node">
<title>src/commonComponents/MainWrapper.js</title>
<g id="a_node14"><a xlink:href="src/commonComponents/MainWrapper.js" xlink:title="MainWrapper.js">
<path fill="#ffffcc" stroke="black" d="M297,-304C297,-304 228,-304 228,-304 225,-304 222,-301 222,-298 222,-298 222,-292 222,-292 222,-289 225,-286 228,-286 228,-286 297,-286 297,-286 300,-286 303,-289 303,-292 303,-292 303,-298 303,-298 303,-301 300,-304 297,-304"/>
<text text-anchor="middle" x="262.5" y="-292.8" font-family="Helvetica,sans-Serif" font-size="9.00">MainWrapper.js</text>
</a>
</g>
</g>
<!-- src/commonComponents/MainWrapper.js&#45;&gt;src/commonComponents/MainWrapper.css -->
<g id="edge10" class="edge">
<title>src/commonComponents/MainWrapper.js&#45;&gt;src/commonComponents/MainWrapper.css</title>
<path fill="none" stroke="#000000" stroke-width="2" stroke-opacity="0.200000" d="M303.18,-295C315.13,-295 328.4,-295 340.89,-295"/>
<polygon fill="#000000" fill-opacity="0.200000" stroke="#000000" stroke-width="2" stroke-opacity="0.200000" points="340.95,-297.1 346.95,-295 340.95,-292.9 340.95,-297.1"/>
</g>
<!-- src/index.css -->
<g id="node16" class="node">
<title>src/index.css</title>
<g id="a_node16"><a xlink:href="src/index.css" xlink:title="index.css">
<path fill="#ffffcc" stroke="black" d="M188.5,-199C188.5,-199 145.5,-199 145.5,-199 142.5,-199 139.5,-196 139.5,-193 139.5,-193 139.5,-187 139.5,-187 139.5,-184 142.5,-181 145.5,-181 145.5,-181 188.5,-181 188.5,-181 191.5,-181 194.5,-184 194.5,-187 194.5,-187 194.5,-193 194.5,-193 194.5,-196 191.5,-199 188.5,-199"/>
<text text-anchor="middle" x="167" y="-187.8" font-family="Helvetica,sans-Serif" font-size="9.00">index.css</text>
</a>
</g>
</g>
<!-- src/index.js -->
<g id="node17" class="node">
<title>src/index.js</title>
<g id="a_node17"><a xlink:href="src/index.js" xlink:title="index.js">
<path fill="#ffffcc" stroke="black" d="M82.5,-398C82.5,-398 40.5,-398 40.5,-398 37.5,-398 34.5,-395 34.5,-392 34.5,-392 34.5,-386 34.5,-386 34.5,-383 37.5,-380 40.5,-380 40.5,-380 82.5,-380 82.5,-380 85.5,-380 88.5,-383 88.5,-386 88.5,-386 88.5,-392 88.5,-392 88.5,-395 85.5,-398 82.5,-398"/>
<text text-anchor="middle" x="61.5" y="-386.8" font-family="Helvetica,sans-Serif" font-size="9.00">index.js</text>
</a>
</g>
</g>
<!-- src/index.js&#45;&gt;src/Nav.js -->
<g id="edge14" class="edge">
<title>src/index.js&#45;&gt;src/Nav.js</title>
<path fill="none" stroke="#000000" stroke-width="2" stroke-opacity="0.200000" d="M68.06,-379.91C85.05,-352.17 136.35,-268.42 157.12,-234.5"/>
<polygon fill="#000000" fill-opacity="0.200000" stroke="#000000" stroke-width="2" stroke-opacity="0.200000" points="159.07,-235.34 160.41,-229.13 155.48,-233.15 159.07,-235.34"/>
</g>
<!-- src/index.js&#45;&gt;src/index.css -->
<g id="edge13" class="edge">
<title>src/index.js&#45;&gt;src/index.css</title>
<path fill="none" stroke="#000000" stroke-width="2" stroke-opacity="0.200000" d="M62.23,-379.84C61.89,-350.14 64.94,-255.47 115,-205 119.93,-200.03 126.41,-196.69 133.09,-194.45"/>
<polygon fill="#000000" fill-opacity="0.200000" stroke="#000000" stroke-width="2" stroke-opacity="0.200000" points="134.05,-196.36 139.24,-192.69 132.9,-192.32 134.05,-196.36"/>
</g>
<!-- src/routes/crew/Crew.js -->
<g id="node18" class="node">
<title>src/routes/crew/Crew.js</title>
<g id="a_node18"><a xlink:href="src/routes/crew/Crew.js" xlink:title="Crew.js">
<path fill="#ffffcc" stroke="black" d="M188,-518C188,-518 146,-518 146,-518 143,-518 140,-515 140,-512 140,-512 140,-506 140,-506 140,-503 143,-500 146,-500 146,-500 188,-500 188,-500 191,-500 194,-503 194,-506 194,-506 194,-512 194,-512 194,-515 191,-518 188,-518"/>
<text text-anchor="middle" x="167" y="-506.8" font-family="Helvetica,sans-Serif" font-size="9.00">Crew.js</text>
</a>
</g>
</g>
<!-- src/index.js&#45;&gt;src/routes/crew/Crew.js -->
<g id="edge15" class="edge">
<title>src/index.js&#45;&gt;src/routes/crew/Crew.js</title>
<path fill="none" stroke="#000000" stroke-width="2" stroke-opacity="0.200000" d="M65.12,-398.12C71,-417.11 87,-461.27 115,-487 120.49,-492.05 127.32,-496.05 134.18,-499.18"/>
<polygon fill="#000000" fill-opacity="0.200000" stroke="#000000" stroke-width="2" stroke-opacity="0.200000" points="133.57,-501.21 139.91,-501.61 135.21,-497.34 133.57,-501.21"/>
</g>
<!-- src/routes/destination/Destination.js -->
<g id="node19" class="node">
<title>src/routes/destination/Destination.js</title>
<g id="a_node19"><a xlink:href="src/routes/destination/Destination.js" xlink:title="Destination.js">
<path fill="#ffffcc" stroke="black" d="M197,-398C197,-398 137,-398 137,-398 134,-398 131,-395 131,-392 131,-392 131,-386 131,-386 131,-383 134,-380 137,-380 137,-380 197,-380 197,-380 200,-380 203,-383 203,-386 203,-386 203,-392 203,-392 203,-395 200,-398 197,-398"/>
<text text-anchor="middle" x="167" y="-386.8" font-family="Helvetica,sans-Serif" font-size="9.00">Destination.js</text>
</a>
</g>
</g>
<!-- src/index.js&#45;&gt;src/routes/destination/Destination.js -->
<g id="edge16" class="edge">
<title>src/index.js&#45;&gt;src/routes/destination/Destination.js</title>
<path fill="none" stroke="#000000" stroke-width="2" stroke-opacity="0.200000" d="M88.62,-389C99.53,-389 112.48,-389 124.63,-389"/>
<polygon fill="#000000" fill-opacity="0.200000" stroke="#000000" stroke-width="2" stroke-opacity="0.200000" points="124.9,-391.1 130.9,-389 124.9,-386.9 124.9,-391.1"/>
</g>
<!-- src/routes/home/Home.js -->
<g id="node20" class="node">
<title>src/routes/home/Home.js</title>
<g id="a_node20"><a xlink:href="src/routes/home/Home.js" xlink:title="Home.js">
<path fill="#ffffcc" stroke="black" d="M188,-458C188,-458 146,-458 146,-458 143,-458 140,-455 140,-452 140,-452 140,-446 140,-446 140,-443 143,-440 146,-440 146,-440 188,-440 188,-440 191,-440 194,-443 194,-446 194,-446 194,-452 194,-452 194,-455 191,-458 188,-458"/>
<text text-anchor="middle" x="167" y="-446.8" font-family="Helvetica,sans-Serif" font-size="9.00">Home.js</text>
</a>
</g>
</g>
<!-- src/index.js&#45;&gt;src/routes/home/Home.js -->
<g id="edge17" class="edge">
<title>src/index.js&#45;&gt;src/routes/home/Home.js</title>
<path fill="none" stroke="#000000" stroke-width="2" stroke-opacity="0.200000" d="M73.69,-398.21C84,-406.43 99.94,-418.44 115,-427 121.68,-430.8 129.14,-434.36 136.25,-437.47"/>
<polygon fill="#000000" fill-opacity="0.200000" stroke="#000000" stroke-width="2" stroke-opacity="0.200000" points="135.78,-439.55 142.12,-439.97 137.42,-435.69 135.78,-439.55"/>
</g>
<!-- src/routes/crew/Crew.js&#45;&gt;src/space&#45;data.js -->
<g id="edge19" class="edge">
<title>src/routes/crew/Crew.js&#45;&gt;src/space&#45;data.js</title>
<path fill="none" stroke="#000000" stroke-width="2" stroke-opacity="0.200000" d="M189.62,-499.79C194.84,-496.52 199.83,-492.3 203,-487 216.48,-464.44 195.86,-390.48 211,-369 213.79,-365.04 217.45,-361.79 221.53,-359.12"/>
<polygon fill="#000000" fill-opacity="0.200000" stroke="#000000" stroke-width="2" stroke-opacity="0.200000" points="222.73,-360.85 226.88,-356.03 220.64,-357.21 222.73,-360.85"/>
</g>
<!-- src/routes/crew/Crew.js&#45;&gt;src/commonComponents/MainWrapper.js -->
<g id="edge18" class="edge">
<title>src/routes/crew/Crew.js&#45;&gt;src/commonComponents/MainWrapper.js</title>
<path fill="none" stroke="#000000" stroke-width="2" stroke-opacity="0.200000" d="M189.7,-499.84C194.93,-496.57 199.89,-492.33 203,-487 213.02,-469.79 198.45,-323.46 211,-308 212.52,-306.13 214.26,-304.51 216.17,-303.11"/>
<polygon fill="#000000" fill-opacity="0.200000" stroke="#000000" stroke-width="2" stroke-opacity="0.200000" points="217.5,-304.76 221.57,-299.88 215.34,-301.16 217.5,-304.76"/>
</g>
<!-- src/routes/crew/Crew.css -->
<g id="node22" class="node">
<title>src/routes/crew/Crew.css</title>
<g id="a_node22"><a xlink:href="src/routes/crew/Crew.css" xlink:title="Crew.css">
<path fill="#ffffcc" stroke="black" d="M283.5,-518C283.5,-518 241.5,-518 241.5,-518 238.5,-518 235.5,-515 235.5,-512 235.5,-512 235.5,-506 235.5,-506 235.5,-503 238.5,-500 241.5,-500 241.5,-500 283.5,-500 283.5,-500 286.5,-500 289.5,-503 289.5,-506 289.5,-506 289.5,-512 289.5,-512 289.5,-515 286.5,-518 283.5,-518"/>
<text text-anchor="middle" x="262.5" y="-506.8" font-family="Helvetica,sans-Serif" font-size="9.00">Crew.css</text>
</a>
</g>
</g>
<!-- src/routes/crew/Crew.js&#45;&gt;src/routes/crew/Crew.css -->
<g id="edge20" class="edge">
<title>src/routes/crew/Crew.js&#45;&gt;src/routes/crew/Crew.css</title>
<path fill="none" stroke="#000000" stroke-width="2" stroke-opacity="0.200000" d="M194.04,-509C204.9,-509 217.61,-509 229.06,-509"/>
<polygon fill="#000000" fill-opacity="0.200000" stroke="#000000" stroke-width="2" stroke-opacity="0.200000" points="229.27,-511.1 235.27,-509 229.27,-506.9 229.27,-511.1"/>
</g>
<!-- src/routes/destination/Destination.js&#45;&gt;src/space&#45;data.js -->
<g id="edge22" class="edge">
<title>src/routes/destination/Destination.js&#45;&gt;src/space&#45;data.js</title>
<path fill="none" stroke="#000000" stroke-width="2" stroke-opacity="0.200000" d="M195.58,-379.86C198.15,-378.68 200.66,-377.39 203,-376 207.06,-373.58 207.01,-371.53 211,-369 217.18,-365.08 224.19,-361.54 230.96,-358.5"/>
<polygon fill="#000000" fill-opacity="0.200000" stroke="#000000" stroke-width="2" stroke-opacity="0.200000" points="231.91,-360.38 236.58,-356.06 230.24,-356.52 231.91,-360.38"/>
</g>
<!-- src/routes/destination/Destination.js&#45;&gt;src/commonComponents/MainWrapper.js -->
<g id="edge21" class="edge">
<title>src/routes/destination/Destination.js&#45;&gt;src/commonComponents/MainWrapper.js</title>
<path fill="none" stroke="#000000" stroke-width="2" stroke-opacity="0.200000" d="M199.17,-379.83C200.58,-378.7 201.88,-377.43 203,-376 221.8,-352.07 190.98,-330.92 211,-308 212.58,-306.19 214.38,-304.61 216.33,-303.24"/>
<polygon fill="#000000" fill-opacity="0.200000" stroke="#000000" stroke-width="2" stroke-opacity="0.200000" points="217.66,-304.9 221.81,-300.08 215.56,-301.26 217.66,-304.9"/>
</g>
<!-- src/routes/destination/Destination.css -->
<g id="node23" class="node">
<title>src/routes/destination/Destination.css</title>
<g id="a_node23"><a xlink:href="src/routes/destination/Destination.css" xlink:title="Destination.css">
<path fill="#ffffcc" stroke="black" d="M296,-398C296,-398 229,-398 229,-398 226,-398 223,-395 223,-392 223,-392 223,-386 223,-386 223,-383 226,-380 229,-380 229,-380 296,-380 296,-380 299,-380 302,-383 302,-386 302,-386 302,-392 302,-392 302,-395 299,-398 296,-398"/>
<text text-anchor="middle" x="262.5" y="-386.8" font-family="Helvetica,sans-Serif" font-size="9.00">Destination.css</text>
</a>
</g>
</g>
<!-- src/routes/destination/Destination.js&#45;&gt;src/routes/destination/Destination.css -->
<g id="edge23" class="edge">
<title>src/routes/destination/Destination.js&#45;&gt;src/routes/destination/Destination.css</title>
<path fill="none" stroke="#000000" stroke-width="2" stroke-opacity="0.200000" d="M203.08,-389C207.5,-389 212.07,-389 216.61,-389"/>
<polygon fill="#000000" fill-opacity="0.200000" stroke="#000000" stroke-width="2" stroke-opacity="0.200000" points="216.77,-391.1 222.77,-389 216.77,-386.9 216.77,-391.1"/>
</g>
<!-- src/routes/home/Home.js&#45;&gt;src/space&#45;data.js -->
<g id="edge25" class="edge">
<title>src/routes/home/Home.js&#45;&gt;src/space&#45;data.js</title>
<path fill="none" stroke="#000000" stroke-width="2" stroke-opacity="0.200000" d="M189.01,-439.87C194.37,-436.56 199.57,-432.31 203,-427 217.12,-405.14 195.28,-389.74 211,-369 213.96,-365.09 217.77,-361.86 221.96,-359.2"/>
<polygon fill="#000000" fill-opacity="0.200000" stroke="#000000" stroke-width="2" stroke-opacity="0.200000" points="223.24,-360.89 227.44,-356.12 221.18,-357.23 223.24,-360.89"/>
</g>
<!-- src/routes/home/Home.js&#45;&gt;src/commonComponents/MainWrapper.js -->
<g id="edge24" class="edge">
<title>src/routes/home/Home.js&#45;&gt;src/commonComponents/MainWrapper.js</title>
<path fill="none" stroke="#000000" stroke-width="2" stroke-opacity="0.200000" d="M189.62,-439.79C194.85,-436.52 199.84,-432.3 203,-427 216.59,-404.25 194.07,-328.39 211,-308 212.54,-306.15 214.3,-304.54 216.22,-303.15"/>
<polygon fill="#000000" fill-opacity="0.200000" stroke="#000000" stroke-width="2" stroke-opacity="0.200000" points="217.55,-304.8 221.64,-299.94 215.41,-301.19 217.55,-304.8"/>
</g>
<!-- src/routes/home/Home.css -->
<g id="node24" class="node">
<title>src/routes/home/Home.css</title>
<g id="a_node24"><a xlink:href="src/routes/home/Home.css" xlink:title="Home.css">
<path fill="#ffffcc" stroke="black" d="M285,-458C285,-458 240,-458 240,-458 237,-458 234,-455 234,-452 234,-452 234,-446 234,-446 234,-443 237,-440 240,-440 240,-440 285,-440 285,-440 288,-440 291,-443 291,-446 291,-446 291,-452 291,-452 291,-455 288,-458 285,-458"/>
<text text-anchor="middle" x="262.5" y="-446.8" font-family="Helvetica,sans-Serif" font-size="9.00">Home.css</text>
</a>
</g>
</g>
<!-- src/routes/home/Home.js&#45;&gt;src/routes/home/Home.css -->
<g id="edge26" class="edge">
<title>src/routes/home/Home.js&#45;&gt;src/routes/home/Home.css</title>
<path fill="none" stroke="#000000" stroke-width="2" stroke-opacity="0.200000" d="M194.04,-449C204.53,-449 216.76,-449 227.9,-449"/>
<polygon fill="#000000" fill-opacity="0.200000" stroke="#000000" stroke-width="2" stroke-opacity="0.200000" points="227.96,-451.1 233.96,-449 227.96,-446.9 227.96,-451.1"/>
</g>
<!-- src/reportWebVitals.js -->
<g id="node21" class="node">
<title>src/reportWebVitals.js</title>
<g id="a_node21"><a xlink:href="src/reportWebVitals.js" xlink:title="reportWebVitals.js">
<path fill="#ccffcc" stroke="black" d="M101,-82C101,-82 22,-82 22,-82 19,-82 16,-79 16,-76 16,-76 16,-70 16,-70 16,-67 19,-64 22,-64 22,-64 101,-64 101,-64 104,-64 107,-67 107,-70 107,-70 107,-76 107,-76 107,-79 104,-82 101,-82"/>
<text text-anchor="middle" x="61.5" y="-70.8" font-family="Helvetica,sans-Serif" font-size="9.00">reportWebVitals.js</text>
</a>
</g>
</g>
<!-- src/setupTests.js -->
<g id="node25" class="node">
<title>src/setupTests.js</title>
<g id="a_node25"><a xlink:href="src/setupTests.js" xlink:title="setupTests.js">
<path fill="#ccffcc" stroke="black" d="M90,-52C90,-52 33,-52 33,-52 30,-52 27,-49 27,-46 27,-46 27,-40 27,-40 27,-37 30,-34 33,-34 33,-34 90,-34 90,-34 93,-34 96,-37 96,-40 96,-40 96,-46 96,-46 96,-49 93,-52 90,-52"/>
<text text-anchor="middle" x="61.5" y="-40.8" font-family="Helvetica,sans-Serif" font-size="9.00">setupTests.js</text>
</a>
</g>
</g>
</g>
</svg>
